<mxfile host="app.diagrams.net" modified="2024-05-17T06:36:17.936Z" agent="Mozilla/5.0 (Windows NT 10.0; Win64; x64) AppleWebKit/537.36 (KHTML, like Gecko) Chrome/124.0.0.0 Safari/537.36" etag="YMZar9yfbhviJeTJ1xAk" version="24.4.3" type="device">
  <diagram name="Page-1" id="K1B6Gt82lj6eOVvbxu1k">
    <mxGraphModel dx="819" dy="426" grid="1" gridSize="10" guides="1" tooltips="1" connect="1" arrows="1" fold="1" page="1" pageScale="1" pageWidth="850" pageHeight="1100" math="0" shadow="0">
      <root>
        <mxCell id="0" />
        <mxCell id="1" parent="0" />
        <mxCell id="OxgNZy2Y6qjUj_2ccruD-5" value="" style="endArrow=none;html=1;rounded=0;strokeWidth=9;fillColor=#f8cecc;strokeColor=#b85450;" edge="1" parent="1">
          <mxGeometry width="50" height="50" relative="1" as="geometry">
            <mxPoint x="341" y="379.5" as="sourcePoint" />
            <mxPoint x="440" y="380" as="targetPoint" />
          </mxGeometry>
        </mxCell>
        <mxCell id="OxgNZy2Y6qjUj_2ccruD-4" value="" style="endArrow=none;html=1;rounded=0;strokeWidth=4;" edge="1" parent="1">
          <mxGeometry width="50" height="50" relative="1" as="geometry">
            <mxPoint x="220" y="380" as="sourcePoint" />
            <mxPoint x="276" y="380" as="targetPoint" />
          </mxGeometry>
        </mxCell>
        <mxCell id="OxgNZy2Y6qjUj_2ccruD-12" value="" style="endArrow=none;html=1;rounded=0;strokeWidth=4;" edge="1" parent="1">
          <mxGeometry width="50" height="50" relative="1" as="geometry">
            <mxPoint x="350" y="380" as="sourcePoint" />
            <mxPoint x="435" y="380" as="targetPoint" />
          </mxGeometry>
        </mxCell>
        <mxCell id="OxgNZy2Y6qjUj_2ccruD-7" value="" style="endArrow=none;html=1;rounded=0;strokeWidth=9;fillColor=#f8cecc;strokeColor=#b85450;" edge="1" parent="1">
          <mxGeometry width="50" height="50" relative="1" as="geometry">
            <mxPoint x="533" y="396" as="sourcePoint" />
            <mxPoint x="533" y="436" as="targetPoint" />
          </mxGeometry>
        </mxCell>
        <mxCell id="OxgNZy2Y6qjUj_2ccruD-13" value="" style="endArrow=none;html=1;rounded=0;strokeWidth=4;" edge="1" parent="1">
          <mxGeometry width="50" height="50" relative="1" as="geometry">
            <mxPoint x="533" y="400" as="sourcePoint" />
            <mxPoint x="533" y="440" as="targetPoint" />
          </mxGeometry>
        </mxCell>
        <mxCell id="OxgNZy2Y6qjUj_2ccruD-1" value="&lt;font style=&quot;font-size: 21px;&quot;&gt;Device&lt;/font&gt;&lt;div&gt;&lt;font style=&quot;font-size: 21px;&quot;&gt;(No VPN Client)&lt;/font&gt;&lt;/div&gt;" style="whiteSpace=wrap;html=1;aspect=fixed;fillColor=#dae8fc;strokeColor=#6c8ebf;" vertex="1" parent="1">
          <mxGeometry x="120" y="330" width="100" height="100" as="geometry" />
        </mxCell>
        <mxCell id="OxgNZy2Y6qjUj_2ccruD-2" value="&lt;span style=&quot;font-size: 21px;&quot;&gt;VPN Client&lt;/span&gt;" style="whiteSpace=wrap;html=1;aspect=fixed;fillColor=#dae8fc;strokeColor=#6c8ebf;" vertex="1" parent="1">
          <mxGeometry x="250" y="330" width="100" height="100" as="geometry" />
        </mxCell>
        <mxCell id="OxgNZy2Y6qjUj_2ccruD-3" value="&lt;div&gt;&lt;font style=&quot;font-size: 21px;&quot;&gt;VPN Server&lt;/font&gt;&lt;/div&gt;" style="whiteSpace=wrap;html=1;aspect=fixed;fillColor=#dae8fc;strokeColor=#6c8ebf;" vertex="1" parent="1">
          <mxGeometry x="471.5" y="436" width="100" height="100" as="geometry" />
        </mxCell>
        <mxCell id="OxgNZy2Y6qjUj_2ccruD-6" value="&lt;font style=&quot;font-size: 21px;&quot;&gt;Internet&lt;/font&gt;" style="ellipse;shape=cloud;whiteSpace=wrap;html=1;" vertex="1" parent="1">
          <mxGeometry x="413.5" y="310" width="155" height="110" as="geometry" />
        </mxCell>
        <mxCell id="OxgNZy2Y6qjUj_2ccruD-9" value="&lt;font style=&quot;font-size: 21px;&quot;&gt;OpenVPN Tunnel&lt;/font&gt;" style="text;html=1;align=center;verticalAlign=middle;whiteSpace=wrap;rounded=0;fillColor=#f8cecc;strokeColor=#b85450;" vertex="1" parent="1">
          <mxGeometry x="355" y="416" width="110" height="60" as="geometry" />
        </mxCell>
        <mxCell id="OxgNZy2Y6qjUj_2ccruD-10" value="" style="endArrow=classic;html=1;rounded=0;strokeWidth=3;fillColor=#f8cecc;strokeColor=#b85450;" edge="1" parent="1">
          <mxGeometry width="50" height="50" relative="1" as="geometry">
            <mxPoint x="402" y="410" as="sourcePoint" />
            <mxPoint x="402" y="390" as="targetPoint" />
          </mxGeometry>
        </mxCell>
        <mxCell id="OxgNZy2Y6qjUj_2ccruD-11" value="" style="endArrow=classic;html=1;rounded=0;strokeWidth=3;fillColor=#f8cecc;strokeColor=#b85450;" edge="1" parent="1">
          <mxGeometry width="50" height="50" relative="1" as="geometry">
            <mxPoint x="470" y="424" as="sourcePoint" />
            <mxPoint x="520" y="424" as="targetPoint" />
          </mxGeometry>
        </mxCell>
        <mxCell id="OxgNZy2Y6qjUj_2ccruD-14" value="" style="endArrow=classic;html=1;rounded=0;strokeWidth=3;" edge="1" parent="1">
          <mxGeometry width="50" height="50" relative="1" as="geometry">
            <mxPoint x="390" y="350" as="sourcePoint" />
            <mxPoint x="390" y="370" as="targetPoint" />
          </mxGeometry>
        </mxCell>
        <mxCell id="OxgNZy2Y6qjUj_2ccruD-15" value="&lt;font style=&quot;font-size: 21px;&quot;&gt;Device A&#39;s Traffic&lt;/font&gt;" style="text;html=1;align=center;verticalAlign=middle;whiteSpace=wrap;rounded=0;" vertex="1" parent="1">
          <mxGeometry x="340" y="290" width="110" height="60" as="geometry" />
        </mxCell>
      </root>
    </mxGraphModel>
  </diagram>
</mxfile>
